<mxfile host="app.diagrams.net" modified="2022-11-24T15:59:25.296Z" agent="5.0 (Windows NT 10.0; Win64; x64) AppleWebKit/537.36 (KHTML, like Gecko) Chrome/107.0.0.0 Safari/537.36" etag="dSpoFbWKuVep3f9HusOn" version="20.6.0" type="github">
  <diagram id="prtHgNgQTEPvFCAcTncT" name="Page-1">
    <mxGraphModel dx="1483" dy="881" grid="1" gridSize="10" guides="1" tooltips="1" connect="1" arrows="1" fold="1" page="1" pageScale="1" pageWidth="827" pageHeight="1169" math="0" shadow="0">
      <root>
        <mxCell id="0" />
        <mxCell id="1" parent="0" />
        <mxCell id="dNxyNK7c78bLwvsdeMH5-19" value="Pool" style="swimlane;html=1;childLayout=stackLayout;resizeParent=1;resizeParentMax=0;horizontal=0;startSize=20;horizontalStack=0;" parent="1" vertex="1">
          <mxGeometry x="100" y="90" width="560" height="250" as="geometry" />
        </mxCell>
        <mxCell id="dNxyNK7c78bLwvsdeMH5-27" value="" style="edgeStyle=orthogonalEdgeStyle;rounded=0;orthogonalLoop=1;jettySize=auto;html=1;dashed=1;endArrow=none;endFill=0;" parent="dNxyNK7c78bLwvsdeMH5-19" source="dNxyNK7c78bLwvsdeMH5-30" target="dNxyNK7c78bLwvsdeMH5-26" edge="1">
          <mxGeometry relative="1" as="geometry" />
        </mxCell>
        <mxCell id="dNxyNK7c78bLwvsdeMH5-20" value="Server" style="swimlane;html=1;startSize=20;horizontal=0;" parent="dNxyNK7c78bLwvsdeMH5-19" vertex="1">
          <mxGeometry x="20" width="540" height="120" as="geometry" />
        </mxCell>
        <mxCell id="P1tkEwXqQohBpj03M5yU-7" value="" style="edgeStyle=orthogonalEdgeStyle;rounded=0;orthogonalLoop=1;jettySize=auto;html=1;" parent="dNxyNK7c78bLwvsdeMH5-20" source="dNxyNK7c78bLwvsdeMH5-23" target="dNxyNK7c78bLwvsdeMH5-24" edge="1">
          <mxGeometry relative="1" as="geometry" />
        </mxCell>
        <mxCell id="dNxyNK7c78bLwvsdeMH5-23" value="Creates an unbound socket" style="ellipse;whiteSpace=wrap;html=1;" parent="dNxyNK7c78bLwvsdeMH5-20" vertex="1">
          <mxGeometry x="30" y="20" width="80" height="80" as="geometry" />
        </mxCell>
        <mxCell id="P1tkEwXqQohBpj03M5yU-3" value="" style="edgeStyle=orthogonalEdgeStyle;rounded=0;orthogonalLoop=1;jettySize=auto;html=1;" parent="dNxyNK7c78bLwvsdeMH5-20" source="dNxyNK7c78bLwvsdeMH5-24" target="dNxyNK7c78bLwvsdeMH5-30" edge="1">
          <mxGeometry relative="1" as="geometry" />
        </mxCell>
        <mxCell id="dNxyNK7c78bLwvsdeMH5-24" value="Listens for a client connection" style="rounded=0;whiteSpace=wrap;html=1;fontFamily=Helvetica;fontSize=12;fontColor=#000000;align=center;" parent="dNxyNK7c78bLwvsdeMH5-20" vertex="1">
          <mxGeometry x="130" y="30" width="80" height="60" as="geometry" />
        </mxCell>
        <mxCell id="P1tkEwXqQohBpj03M5yU-10" value="" style="edgeStyle=orthogonalEdgeStyle;rounded=0;orthogonalLoop=1;jettySize=auto;html=1;" parent="dNxyNK7c78bLwvsdeMH5-20" source="dNxyNK7c78bLwvsdeMH5-30" target="P1tkEwXqQohBpj03M5yU-9" edge="1">
          <mxGeometry relative="1" as="geometry" />
        </mxCell>
        <mxCell id="dNxyNK7c78bLwvsdeMH5-30" value="Create a new socket for the connection" style="rounded=0;whiteSpace=wrap;html=1;fontFamily=Helvetica;fontSize=12;fontColor=#000000;align=center;" parent="dNxyNK7c78bLwvsdeMH5-20" vertex="1">
          <mxGeometry x="230" y="30" width="80" height="60" as="geometry" />
        </mxCell>
        <mxCell id="dNxyNK7c78bLwvsdeMH5-32" value="Return client connection socket" style="ellipse;whiteSpace=wrap;html=1;" parent="dNxyNK7c78bLwvsdeMH5-20" vertex="1">
          <mxGeometry x="430" y="20" width="80" height="80" as="geometry" />
        </mxCell>
        <mxCell id="P1tkEwXqQohBpj03M5yU-11" value="" style="edgeStyle=orthogonalEdgeStyle;rounded=0;orthogonalLoop=1;jettySize=auto;html=1;" parent="dNxyNK7c78bLwvsdeMH5-20" source="P1tkEwXqQohBpj03M5yU-9" target="dNxyNK7c78bLwvsdeMH5-32" edge="1">
          <mxGeometry relative="1" as="geometry" />
        </mxCell>
        <mxCell id="P1tkEwXqQohBpj03M5yU-9" value="Close the listening socket" style="rounded=0;whiteSpace=wrap;html=1;fontFamily=Helvetica;fontSize=12;fontColor=#000000;align=center;" parent="dNxyNK7c78bLwvsdeMH5-20" vertex="1">
          <mxGeometry x="330" y="30" width="80" height="60" as="geometry" />
        </mxCell>
        <mxCell id="dNxyNK7c78bLwvsdeMH5-21" value="Client" style="swimlane;html=1;startSize=20;horizontal=0;" parent="dNxyNK7c78bLwvsdeMH5-19" vertex="1">
          <mxGeometry x="20" y="120" width="540" height="130" as="geometry" />
        </mxCell>
        <mxCell id="P1tkEwXqQohBpj03M5yU-14" value="" style="edgeStyle=orthogonalEdgeStyle;rounded=0;orthogonalLoop=1;jettySize=auto;html=1;" parent="dNxyNK7c78bLwvsdeMH5-21" source="dNxyNK7c78bLwvsdeMH5-26" target="P1tkEwXqQohBpj03M5yU-13" edge="1">
          <mxGeometry relative="1" as="geometry" />
        </mxCell>
        <mxCell id="dNxyNK7c78bLwvsdeMH5-26" value="Attempts to connect to a server" style="rounded=0;whiteSpace=wrap;html=1;fontFamily=Helvetica;fontSize=12;fontColor=#000000;align=center;" parent="dNxyNK7c78bLwvsdeMH5-21" vertex="1">
          <mxGeometry x="230" y="30" width="80" height="60" as="geometry" />
        </mxCell>
        <mxCell id="P1tkEwXqQohBpj03M5yU-8" value="" style="edgeStyle=orthogonalEdgeStyle;rounded=0;orthogonalLoop=1;jettySize=auto;html=1;" parent="dNxyNK7c78bLwvsdeMH5-21" source="P1tkEwXqQohBpj03M5yU-5" target="dNxyNK7c78bLwvsdeMH5-26" edge="1">
          <mxGeometry relative="1" as="geometry" />
        </mxCell>
        <mxCell id="P1tkEwXqQohBpj03M5yU-5" value="Creates an unbound socket" style="ellipse;whiteSpace=wrap;html=1;" parent="dNxyNK7c78bLwvsdeMH5-21" vertex="1">
          <mxGeometry x="30" y="20" width="80" height="80" as="geometry" />
        </mxCell>
        <mxCell id="P1tkEwXqQohBpj03M5yU-13" value="Return Server connection socket" style="ellipse;whiteSpace=wrap;html=1;" parent="dNxyNK7c78bLwvsdeMH5-21" vertex="1">
          <mxGeometry x="390" y="20" width="120" height="80" as="geometry" />
        </mxCell>
        <mxCell id="1jByo0EilKz6nTjALS8V-70" value="sendMessage" style="swimlane;html=1;startSize=20;horizontal=0;" parent="1" vertex="1">
          <mxGeometry x="10" y="830" width="1140" height="120" as="geometry" />
        </mxCell>
        <mxCell id="1jByo0EilKz6nTjALS8V-71" value="" style="edgeStyle=orthogonalEdgeStyle;rounded=0;orthogonalLoop=1;jettySize=auto;html=1;" parent="1jByo0EilKz6nTjALS8V-70" source="1jByo0EilKz6nTjALS8V-72" target="1jByo0EilKz6nTjALS8V-73" edge="1">
          <mxGeometry relative="1" as="geometry" />
        </mxCell>
        <mxCell id="1jByo0EilKz6nTjALS8V-72" value="START" style="ellipse;whiteSpace=wrap;html=1;" parent="1jByo0EilKz6nTjALS8V-70" vertex="1">
          <mxGeometry x="30" y="20" width="80" height="80" as="geometry" />
        </mxCell>
        <mxCell id="1jByo0EilKz6nTjALS8V-73" value="Select the command enum" style="rounded=0;whiteSpace=wrap;html=1;fontFamily=Helvetica;fontSize=12;fontColor=#000000;align=center;" parent="1jByo0EilKz6nTjALS8V-70" vertex="1">
          <mxGeometry x="130" y="30" width="80" height="60" as="geometry" />
        </mxCell>
        <mxCell id="1jByo0EilKz6nTjALS8V-74" value="" style="edgeStyle=orthogonalEdgeStyle;rounded=0;orthogonalLoop=1;jettySize=auto;html=1;" parent="1jByo0EilKz6nTjALS8V-70" source="1jByo0EilKz6nTjALS8V-75" target="1jByo0EilKz6nTjALS8V-78" edge="1">
          <mxGeometry relative="1" as="geometry" />
        </mxCell>
        <mxCell id="1jByo0EilKz6nTjALS8V-75" value="Append the delimiter" style="rounded=0;whiteSpace=wrap;html=1;fontFamily=Helvetica;fontSize=12;fontColor=#000000;align=center;" parent="1jByo0EilKz6nTjALS8V-70" vertex="1">
          <mxGeometry x="240" y="30" width="80" height="60" as="geometry" />
        </mxCell>
        <mxCell id="1jByo0EilKz6nTjALS8V-76" value="" style="edgeStyle=orthogonalEdgeStyle;rounded=0;orthogonalLoop=1;jettySize=auto;html=1;" parent="1jByo0EilKz6nTjALS8V-70" source="1jByo0EilKz6nTjALS8V-73" target="1jByo0EilKz6nTjALS8V-75" edge="1">
          <mxGeometry relative="1" as="geometry" />
        </mxCell>
        <mxCell id="1jByo0EilKz6nTjALS8V-77" value="" style="edgeStyle=orthogonalEdgeStyle;rounded=0;orthogonalLoop=1;jettySize=auto;html=1;" parent="1jByo0EilKz6nTjALS8V-70" source="1jByo0EilKz6nTjALS8V-78" target="1jByo0EilKz6nTjALS8V-80" edge="1">
          <mxGeometry relative="1" as="geometry" />
        </mxCell>
        <mxCell id="1jByo0EilKz6nTjALS8V-78" value="Append the number of arguments to follow" style="rounded=0;whiteSpace=wrap;html=1;fontFamily=Helvetica;fontSize=12;fontColor=#000000;align=center;" parent="1jByo0EilKz6nTjALS8V-70" vertex="1">
          <mxGeometry x="350" y="30" width="80" height="60" as="geometry" />
        </mxCell>
        <mxCell id="1jByo0EilKz6nTjALS8V-80" value="Encode the message into bytes" style="rounded=0;whiteSpace=wrap;html=1;fontFamily=Helvetica;fontSize=12;fontColor=#000000;align=center;" parent="1jByo0EilKz6nTjALS8V-70" vertex="1">
          <mxGeometry x="460" y="30" width="80" height="60" as="geometry" />
        </mxCell>
        <mxCell id="1jByo0EilKz6nTjALS8V-84" value="" style="edgeStyle=orthogonalEdgeStyle;rounded=0;orthogonalLoop=1;jettySize=auto;html=1;" parent="1jByo0EilKz6nTjALS8V-70" source="1jByo0EilKz6nTjALS8V-80" target="1jByo0EilKz6nTjALS8V-85" edge="1">
          <mxGeometry relative="1" as="geometry">
            <mxPoint x="570" y="59.99999999999977" as="targetPoint" />
          </mxGeometry>
        </mxCell>
        <mxCell id="1jByo0EilKz6nTjALS8V-85" value="__sendMessage" style="shape=parallelogram;perimeter=parallelogramPerimeter;whiteSpace=wrap;html=1;fixedSize=1;" parent="1jByo0EilKz6nTjALS8V-70" vertex="1">
          <mxGeometry x="560" y="30" width="120" height="60" as="geometry" />
        </mxCell>
        <mxCell id="1jByo0EilKz6nTjALS8V-86" value="Sent all the arguments?" style="rhombus;whiteSpace=wrap;html=1;" parent="1jByo0EilKz6nTjALS8V-70" vertex="1">
          <mxGeometry x="700" y="15" width="90" height="90" as="geometry" />
        </mxCell>
        <mxCell id="1jByo0EilKz6nTjALS8V-87" value="" style="edgeStyle=orthogonalEdgeStyle;rounded=0;orthogonalLoop=1;jettySize=auto;html=1;" parent="1jByo0EilKz6nTjALS8V-70" source="1jByo0EilKz6nTjALS8V-85" target="1jByo0EilKz6nTjALS8V-86" edge="1">
          <mxGeometry relative="1" as="geometry" />
        </mxCell>
        <mxCell id="1jByo0EilKz6nTjALS8V-88" value="Encode next argument" style="whiteSpace=wrap;html=1;" parent="1jByo0EilKz6nTjALS8V-70" vertex="1">
          <mxGeometry x="830" y="10" width="93" height="40" as="geometry" />
        </mxCell>
        <mxCell id="1jByo0EilKz6nTjALS8V-89" value="No" style="edgeStyle=orthogonalEdgeStyle;rounded=0;orthogonalLoop=1;jettySize=auto;html=1;" parent="1jByo0EilKz6nTjALS8V-70" source="1jByo0EilKz6nTjALS8V-86" target="1jByo0EilKz6nTjALS8V-88" edge="1">
          <mxGeometry relative="1" as="geometry" />
        </mxCell>
        <mxCell id="1jByo0EilKz6nTjALS8V-90" value="__sendMessage" style="shape=parallelogram;perimeter=parallelogramPerimeter;whiteSpace=wrap;html=1;fixedSize=1;" parent="1jByo0EilKz6nTjALS8V-70" vertex="1">
          <mxGeometry x="960" y="5" width="107" height="50" as="geometry" />
        </mxCell>
        <mxCell id="1jByo0EilKz6nTjALS8V-91" value="" style="edgeStyle=orthogonalEdgeStyle;rounded=0;orthogonalLoop=1;jettySize=auto;html=1;" parent="1jByo0EilKz6nTjALS8V-70" source="1jByo0EilKz6nTjALS8V-88" target="1jByo0EilKz6nTjALS8V-90" edge="1">
          <mxGeometry relative="1" as="geometry">
            <mxPoint x="940" y="90" as="sourcePoint" />
            <mxPoint x="710.0000000000002" y="69.99999999999977" as="targetPoint" />
          </mxGeometry>
        </mxCell>
        <mxCell id="1jByo0EilKz6nTjALS8V-92" value="END" style="ellipse;whiteSpace=wrap;html=1;" parent="1jByo0EilKz6nTjALS8V-70" vertex="1">
          <mxGeometry x="1067" y="40" width="60" height="60" as="geometry" />
        </mxCell>
        <mxCell id="1jByo0EilKz6nTjALS8V-93" value="Yes" style="edgeStyle=orthogonalEdgeStyle;rounded=0;orthogonalLoop=1;jettySize=auto;html=1;" parent="1jByo0EilKz6nTjALS8V-70" source="1jByo0EilKz6nTjALS8V-86" target="1jByo0EilKz6nTjALS8V-92" edge="1">
          <mxGeometry relative="1" as="geometry">
            <Array as="points">
              <mxPoint x="745" y="110" />
              <mxPoint x="1100" y="110" />
            </Array>
          </mxGeometry>
        </mxCell>
        <mxCell id="1jByo0EilKz6nTjALS8V-94" value="" style="endArrow=classic;html=1;rounded=0;" parent="1jByo0EilKz6nTjALS8V-70" source="1jByo0EilKz6nTjALS8V-90" target="1jByo0EilKz6nTjALS8V-86" edge="1">
          <mxGeometry width="50" height="50" relative="1" as="geometry">
            <mxPoint x="820" y="50" as="sourcePoint" />
            <mxPoint x="870" as="targetPoint" />
            <Array as="points">
              <mxPoint x="1013" y="90" />
              <mxPoint x="820" y="90" />
            </Array>
          </mxGeometry>
        </mxCell>
        <mxCell id="1jByo0EilKz6nTjALS8V-95" value="__sendMessage" style="swimlane;html=1;startSize=20;horizontal=0;" parent="1" vertex="1">
          <mxGeometry x="10" y="950" width="630" height="120" as="geometry" />
        </mxCell>
        <mxCell id="1jByo0EilKz6nTjALS8V-96" value="" style="edgeStyle=orthogonalEdgeStyle;rounded=0;orthogonalLoop=1;jettySize=auto;html=1;" parent="1jByo0EilKz6nTjALS8V-95" source="1jByo0EilKz6nTjALS8V-97" target="1jByo0EilKz6nTjALS8V-98" edge="1">
          <mxGeometry relative="1" as="geometry" />
        </mxCell>
        <mxCell id="1jByo0EilKz6nTjALS8V-97" value="START" style="ellipse;whiteSpace=wrap;html=1;" parent="1jByo0EilKz6nTjALS8V-95" vertex="1">
          <mxGeometry x="30" y="20" width="80" height="80" as="geometry" />
        </mxCell>
        <mxCell id="1jByo0EilKz6nTjALS8V-98" value="Send the message through the socket" style="rounded=0;whiteSpace=wrap;html=1;fontFamily=Helvetica;fontSize=12;fontColor=#000000;align=center;" parent="1jByo0EilKz6nTjALS8V-95" vertex="1">
          <mxGeometry x="130" y="30" width="80" height="60" as="geometry" />
        </mxCell>
        <mxCell id="1jByo0EilKz6nTjALS8V-101" value="" style="edgeStyle=orthogonalEdgeStyle;rounded=0;orthogonalLoop=1;jettySize=auto;html=1;" parent="1jByo0EilKz6nTjALS8V-95" source="1jByo0EilKz6nTjALS8V-98" edge="1">
          <mxGeometry relative="1" as="geometry">
            <mxPoint x="240" y="59.99999999999977" as="targetPoint" />
          </mxGeometry>
        </mxCell>
        <mxCell id="1jByo0EilKz6nTjALS8V-116" value="Wait for confirmation&amp;nbsp;" style="rhombus;whiteSpace=wrap;html=1;" parent="1jByo0EilKz6nTjALS8V-95" vertex="1">
          <mxGeometry x="240" y="15" width="90" height="90" as="geometry" />
        </mxCell>
        <mxCell id="1jByo0EilKz6nTjALS8V-117" value="Raise Error" style="whiteSpace=wrap;html=1;" parent="1jByo0EilKz6nTjALS8V-95" vertex="1">
          <mxGeometry x="420" y="10" width="85" height="60" as="geometry" />
        </mxCell>
        <mxCell id="1jByo0EilKz6nTjALS8V-118" value="No Confirmation" style="edgeStyle=orthogonalEdgeStyle;rounded=0;orthogonalLoop=1;jettySize=auto;html=1;" parent="1jByo0EilKz6nTjALS8V-95" source="1jByo0EilKz6nTjALS8V-116" target="1jByo0EilKz6nTjALS8V-117" edge="1">
          <mxGeometry relative="1" as="geometry" />
        </mxCell>
        <mxCell id="1jByo0EilKz6nTjALS8V-120" value="END" style="ellipse;whiteSpace=wrap;html=1;" parent="1jByo0EilKz6nTjALS8V-95" vertex="1">
          <mxGeometry x="530" y="20" width="80" height="80" as="geometry" />
        </mxCell>
        <mxCell id="1jByo0EilKz6nTjALS8V-121" value="Confirmation Received" style="endArrow=classic;html=1;rounded=0;" parent="1jByo0EilKz6nTjALS8V-95" source="1jByo0EilKz6nTjALS8V-116" target="1jByo0EilKz6nTjALS8V-120" edge="1">
          <mxGeometry width="50" height="50" relative="1" as="geometry">
            <mxPoint x="390" y="120" as="sourcePoint" />
            <mxPoint x="440" y="70" as="targetPoint" />
            <Array as="points">
              <mxPoint x="330" y="100" />
              <mxPoint x="490" y="100" />
            </Array>
          </mxGeometry>
        </mxCell>
        <mxCell id="batxFbvYJWx2iKTPdNKd-1" value="receiveMessage" style="swimlane;html=1;startSize=20;horizontal=0;" vertex="1" parent="1">
          <mxGeometry x="10" y="1070" width="1140" height="120" as="geometry" />
        </mxCell>
        <mxCell id="batxFbvYJWx2iKTPdNKd-3" value="START" style="ellipse;whiteSpace=wrap;html=1;" vertex="1" parent="batxFbvYJWx2iKTPdNKd-1">
          <mxGeometry x="30" y="20" width="80" height="80" as="geometry" />
        </mxCell>
        <mxCell id="batxFbvYJWx2iKTPdNKd-12" value="__receiveMessage" style="shape=parallelogram;perimeter=parallelogramPerimeter;whiteSpace=wrap;html=1;fixedSize=1;" vertex="1" parent="batxFbvYJWx2iKTPdNKd-1">
          <mxGeometry x="130" y="30" width="120" height="60" as="geometry" />
        </mxCell>
        <mxCell id="batxFbvYJWx2iKTPdNKd-38" value="" style="endArrow=classic;html=1;rounded=0;" edge="1" parent="batxFbvYJWx2iKTPdNKd-1" source="batxFbvYJWx2iKTPdNKd-3" target="batxFbvYJWx2iKTPdNKd-12">
          <mxGeometry width="50" height="50" relative="1" as="geometry">
            <mxPoint x="390" y="70" as="sourcePoint" />
            <mxPoint x="440" y="20" as="targetPoint" />
          </mxGeometry>
        </mxCell>
        <mxCell id="batxFbvYJWx2iKTPdNKd-39" value="Deconstruct message into the command enum and integer number of arguments" style="whiteSpace=wrap;html=1;" vertex="1" parent="batxFbvYJWx2iKTPdNKd-1">
          <mxGeometry x="270" y="30" width="140" height="60" as="geometry" />
        </mxCell>
        <mxCell id="batxFbvYJWx2iKTPdNKd-40" value="Received correct number of arguments?" style="rhombus;whiteSpace=wrap;html=1;" vertex="1" parent="batxFbvYJWx2iKTPdNKd-1">
          <mxGeometry x="440" y="10" width="100" height="100" as="geometry" />
        </mxCell>
        <mxCell id="batxFbvYJWx2iKTPdNKd-41" value="__receiveMessage" style="shape=parallelogram;perimeter=parallelogramPerimeter;whiteSpace=wrap;html=1;fixedSize=1;" vertex="1" parent="batxFbvYJWx2iKTPdNKd-1">
          <mxGeometry x="560" y="20" width="120" height="40" as="geometry" />
        </mxCell>
        <mxCell id="batxFbvYJWx2iKTPdNKd-42" value="Append message to list" style="rounded=0;whiteSpace=wrap;html=1;" vertex="1" parent="batxFbvYJWx2iKTPdNKd-1">
          <mxGeometry x="697" y="20" width="103" height="40" as="geometry" />
        </mxCell>
        <mxCell id="batxFbvYJWx2iKTPdNKd-43" value="Decode each message in the list" style="rounded=0;whiteSpace=wrap;html=1;" vertex="1" parent="batxFbvYJWx2iKTPdNKd-1">
          <mxGeometry x="610" y="70" width="110" height="40" as="geometry" />
        </mxCell>
        <mxCell id="batxFbvYJWx2iKTPdNKd-44" value="END" style="ellipse;whiteSpace=wrap;html=1;" vertex="1" parent="batxFbvYJWx2iKTPdNKd-1">
          <mxGeometry x="990" y="20" width="80" height="80" as="geometry" />
        </mxCell>
        <mxCell id="batxFbvYJWx2iKTPdNKd-45" value="Return the command enum and the list of arguments" style="shape=parallelogram;perimeter=parallelogramPerimeter;whiteSpace=wrap;html=1;fixedSize=1;" vertex="1" parent="batxFbvYJWx2iKTPdNKd-1">
          <mxGeometry x="830" y="30" width="140" height="60" as="geometry" />
        </mxCell>
        <mxCell id="batxFbvYJWx2iKTPdNKd-46" value="" style="endArrow=classic;html=1;rounded=0;" edge="1" parent="batxFbvYJWx2iKTPdNKd-1" source="batxFbvYJWx2iKTPdNKd-12" target="batxFbvYJWx2iKTPdNKd-39">
          <mxGeometry width="50" height="50" relative="1" as="geometry">
            <mxPoint x="120" y="69.99999999999977" as="sourcePoint" />
            <mxPoint x="150" y="69.99999999999977" as="targetPoint" />
          </mxGeometry>
        </mxCell>
        <mxCell id="batxFbvYJWx2iKTPdNKd-47" value="" style="endArrow=classic;html=1;rounded=0;" edge="1" parent="batxFbvYJWx2iKTPdNKd-1" source="batxFbvYJWx2iKTPdNKd-39" target="batxFbvYJWx2iKTPdNKd-40">
          <mxGeometry width="50" height="50" relative="1" as="geometry">
            <mxPoint x="130" y="79.99999999999977" as="sourcePoint" />
            <mxPoint x="160" y="79.99999999999977" as="targetPoint" />
          </mxGeometry>
        </mxCell>
        <mxCell id="batxFbvYJWx2iKTPdNKd-48" value="No" style="endArrow=classic;html=1;rounded=0;" edge="1" parent="batxFbvYJWx2iKTPdNKd-1" source="batxFbvYJWx2iKTPdNKd-40" target="batxFbvYJWx2iKTPdNKd-41">
          <mxGeometry width="50" height="50" relative="1" as="geometry">
            <mxPoint x="140" y="89.99999999999977" as="sourcePoint" />
            <mxPoint x="170" y="89.99999999999977" as="targetPoint" />
          </mxGeometry>
        </mxCell>
        <mxCell id="batxFbvYJWx2iKTPdNKd-49" value="Yes" style="endArrow=classic;html=1;rounded=0;" edge="1" parent="batxFbvYJWx2iKTPdNKd-1" source="batxFbvYJWx2iKTPdNKd-40" target="batxFbvYJWx2iKTPdNKd-43">
          <mxGeometry width="50" height="50" relative="1" as="geometry">
            <mxPoint x="150" y="99.99999999999977" as="sourcePoint" />
            <mxPoint x="180" y="99.99999999999977" as="targetPoint" />
          </mxGeometry>
        </mxCell>
        <mxCell id="batxFbvYJWx2iKTPdNKd-50" value="" style="endArrow=classic;html=1;rounded=0;" edge="1" parent="batxFbvYJWx2iKTPdNKd-1" source="batxFbvYJWx2iKTPdNKd-41" target="batxFbvYJWx2iKTPdNKd-42">
          <mxGeometry width="50" height="50" relative="1" as="geometry">
            <mxPoint x="160" y="109.99999999999977" as="sourcePoint" />
            <mxPoint x="190" y="109.99999999999977" as="targetPoint" />
          </mxGeometry>
        </mxCell>
        <mxCell id="batxFbvYJWx2iKTPdNKd-51" value="" style="endArrow=classic;html=1;rounded=0;exitX=0.5;exitY=0;exitDx=0;exitDy=0;" edge="1" parent="batxFbvYJWx2iKTPdNKd-1" source="batxFbvYJWx2iKTPdNKd-42" target="batxFbvYJWx2iKTPdNKd-40">
          <mxGeometry width="50" height="50" relative="1" as="geometry">
            <mxPoint x="170" y="119.99999999999977" as="sourcePoint" />
            <mxPoint x="200" y="119.99999999999977" as="targetPoint" />
            <Array as="points">
              <mxPoint x="710" y="10" />
              <mxPoint x="540" y="10" />
            </Array>
          </mxGeometry>
        </mxCell>
        <mxCell id="batxFbvYJWx2iKTPdNKd-52" value="" style="endArrow=classic;html=1;rounded=0;" edge="1" parent="batxFbvYJWx2iKTPdNKd-1" source="batxFbvYJWx2iKTPdNKd-43" target="batxFbvYJWx2iKTPdNKd-45">
          <mxGeometry width="50" height="50" relative="1" as="geometry">
            <mxPoint x="680" y="49.99999999999977" as="sourcePoint" />
            <mxPoint x="706.9999999999998" y="49.99999999999977" as="targetPoint" />
          </mxGeometry>
        </mxCell>
        <mxCell id="batxFbvYJWx2iKTPdNKd-53" value="" style="endArrow=classic;html=1;rounded=0;" edge="1" parent="batxFbvYJWx2iKTPdNKd-1" source="batxFbvYJWx2iKTPdNKd-45" target="batxFbvYJWx2iKTPdNKd-44">
          <mxGeometry width="50" height="50" relative="1" as="geometry">
            <mxPoint x="690" y="59.99999999999977" as="sourcePoint" />
            <mxPoint x="716.9999999999998" y="59.99999999999977" as="targetPoint" />
          </mxGeometry>
        </mxCell>
        <mxCell id="batxFbvYJWx2iKTPdNKd-22" value="__receiveMessage" style="swimlane;html=1;startSize=20;horizontal=0;" vertex="1" parent="1">
          <mxGeometry x="10" y="1190" width="670" height="120" as="geometry" />
        </mxCell>
        <mxCell id="batxFbvYJWx2iKTPdNKd-32" value="" style="edgeStyle=orthogonalEdgeStyle;rounded=0;orthogonalLoop=1;jettySize=auto;html=1;" edge="1" parent="batxFbvYJWx2iKTPdNKd-22" source="batxFbvYJWx2iKTPdNKd-24" target="batxFbvYJWx2iKTPdNKd-27">
          <mxGeometry relative="1" as="geometry" />
        </mxCell>
        <mxCell id="batxFbvYJWx2iKTPdNKd-24" value="START" style="ellipse;whiteSpace=wrap;html=1;" vertex="1" parent="batxFbvYJWx2iKTPdNKd-22">
          <mxGeometry x="30" y="20" width="80" height="80" as="geometry" />
        </mxCell>
        <mxCell id="batxFbvYJWx2iKTPdNKd-27" value="Wait for a message from the socket" style="rhombus;whiteSpace=wrap;html=1;" vertex="1" parent="batxFbvYJWx2iKTPdNKd-22">
          <mxGeometry x="140" y="15" width="90" height="90" as="geometry" />
        </mxCell>
        <mxCell id="batxFbvYJWx2iKTPdNKd-28" value="Raise Error" style="whiteSpace=wrap;html=1;" vertex="1" parent="batxFbvYJWx2iKTPdNKd-22">
          <mxGeometry x="310" y="10" width="70" height="40" as="geometry" />
        </mxCell>
        <mxCell id="batxFbvYJWx2iKTPdNKd-29" value="No message within timeout" style="edgeStyle=orthogonalEdgeStyle;rounded=0;orthogonalLoop=1;jettySize=auto;html=1;" edge="1" parent="batxFbvYJWx2iKTPdNKd-22" source="batxFbvYJWx2iKTPdNKd-27" target="batxFbvYJWx2iKTPdNKd-28">
          <mxGeometry x="0.1667" y="10" relative="1" as="geometry">
            <Array as="points">
              <mxPoint x="260" y="60" />
              <mxPoint x="260" y="20" />
            </Array>
            <mxPoint as="offset" />
          </mxGeometry>
        </mxCell>
        <mxCell id="batxFbvYJWx2iKTPdNKd-30" value="END" style="ellipse;whiteSpace=wrap;html=1;" vertex="1" parent="batxFbvYJWx2iKTPdNKd-22">
          <mxGeometry x="580" y="20" width="80" height="80" as="geometry" />
        </mxCell>
        <mxCell id="batxFbvYJWx2iKTPdNKd-33" value="Send the confirmation message through the socket" style="rounded=0;whiteSpace=wrap;html=1;fontFamily=Helvetica;fontSize=12;fontColor=#000000;align=center;" vertex="1" parent="batxFbvYJWx2iKTPdNKd-22">
          <mxGeometry x="320" y="60" width="120" height="50" as="geometry" />
        </mxCell>
        <mxCell id="batxFbvYJWx2iKTPdNKd-34" value="Message received" style="edgeStyle=orthogonalEdgeStyle;rounded=0;orthogonalLoop=1;jettySize=auto;html=1;" edge="1" parent="batxFbvYJWx2iKTPdNKd-22" source="batxFbvYJWx2iKTPdNKd-27" target="batxFbvYJWx2iKTPdNKd-33">
          <mxGeometry relative="1" as="geometry">
            <mxPoint x="120" y="-70" as="sourcePoint" />
            <mxPoint x="140" y="-70" as="targetPoint" />
          </mxGeometry>
        </mxCell>
        <mxCell id="batxFbvYJWx2iKTPdNKd-35" value="Return the&lt;br&gt;&amp;nbsp;message" style="shape=parallelogram;perimeter=parallelogramPerimeter;whiteSpace=wrap;html=1;fixedSize=1;" vertex="1" parent="batxFbvYJWx2iKTPdNKd-22">
          <mxGeometry x="460" y="35" width="100" height="50" as="geometry" />
        </mxCell>
        <mxCell id="batxFbvYJWx2iKTPdNKd-36" value="" style="endArrow=classic;html=1;rounded=0;" edge="1" parent="batxFbvYJWx2iKTPdNKd-22" source="batxFbvYJWx2iKTPdNKd-33" target="batxFbvYJWx2iKTPdNKd-35">
          <mxGeometry width="50" height="50" relative="1" as="geometry">
            <mxPoint x="390" y="-10" as="sourcePoint" />
            <mxPoint x="440" y="-60" as="targetPoint" />
          </mxGeometry>
        </mxCell>
        <mxCell id="batxFbvYJWx2iKTPdNKd-37" value="" style="endArrow=classic;html=1;rounded=0;" edge="1" parent="batxFbvYJWx2iKTPdNKd-22" source="batxFbvYJWx2iKTPdNKd-35" target="batxFbvYJWx2iKTPdNKd-30">
          <mxGeometry width="50" height="50" relative="1" as="geometry">
            <mxPoint x="390" y="-10" as="sourcePoint" />
            <mxPoint x="440" y="-60" as="targetPoint" />
          </mxGeometry>
        </mxCell>
        <mxCell id="batxFbvYJWx2iKTPdNKd-116" value="Pool" style="swimlane;html=1;childLayout=stackLayout;resizeParent=1;resizeParentMax=0;horizontal=0;startSize=20;horizontalStack=0;" vertex="1" parent="1">
          <mxGeometry x="100" y="390" width="560" height="250" as="geometry" />
        </mxCell>
        <mxCell id="batxFbvYJWx2iKTPdNKd-117" value="" style="edgeStyle=orthogonalEdgeStyle;rounded=0;orthogonalLoop=1;jettySize=auto;html=1;dashed=1;endArrow=none;endFill=0;" edge="1" parent="batxFbvYJWx2iKTPdNKd-116" source="batxFbvYJWx2iKTPdNKd-124" target="batxFbvYJWx2iKTPdNKd-130">
          <mxGeometry relative="1" as="geometry" />
        </mxCell>
        <mxCell id="batxFbvYJWx2iKTPdNKd-118" value="Server" style="swimlane;html=1;startSize=20;horizontal=0;" vertex="1" parent="batxFbvYJWx2iKTPdNKd-116">
          <mxGeometry x="20" width="540" height="120" as="geometry" />
        </mxCell>
        <mxCell id="batxFbvYJWx2iKTPdNKd-119" value="" style="edgeStyle=orthogonalEdgeStyle;rounded=0;orthogonalLoop=1;jettySize=auto;html=1;" edge="1" parent="batxFbvYJWx2iKTPdNKd-118" source="batxFbvYJWx2iKTPdNKd-120" target="batxFbvYJWx2iKTPdNKd-122">
          <mxGeometry relative="1" as="geometry" />
        </mxCell>
        <mxCell id="batxFbvYJWx2iKTPdNKd-120" value="Creates an unbound socket" style="ellipse;whiteSpace=wrap;html=1;" vertex="1" parent="batxFbvYJWx2iKTPdNKd-118">
          <mxGeometry x="30" y="20" width="80" height="80" as="geometry" />
        </mxCell>
        <mxCell id="batxFbvYJWx2iKTPdNKd-121" value="" style="edgeStyle=orthogonalEdgeStyle;rounded=0;orthogonalLoop=1;jettySize=auto;html=1;" edge="1" parent="batxFbvYJWx2iKTPdNKd-118" source="batxFbvYJWx2iKTPdNKd-122" target="batxFbvYJWx2iKTPdNKd-124">
          <mxGeometry relative="1" as="geometry" />
        </mxCell>
        <mxCell id="batxFbvYJWx2iKTPdNKd-122" value="Listens for a client connection" style="rounded=0;whiteSpace=wrap;html=1;fontFamily=Helvetica;fontSize=12;fontColor=#000000;align=center;" vertex="1" parent="batxFbvYJWx2iKTPdNKd-118">
          <mxGeometry x="130" y="30" width="80" height="60" as="geometry" />
        </mxCell>
        <mxCell id="batxFbvYJWx2iKTPdNKd-123" value="" style="edgeStyle=orthogonalEdgeStyle;rounded=0;orthogonalLoop=1;jettySize=auto;html=1;" edge="1" parent="batxFbvYJWx2iKTPdNKd-118" source="batxFbvYJWx2iKTPdNKd-124" target="batxFbvYJWx2iKTPdNKd-127">
          <mxGeometry relative="1" as="geometry" />
        </mxCell>
        <mxCell id="batxFbvYJWx2iKTPdNKd-124" value="Create a new socket for the connection" style="rounded=0;whiteSpace=wrap;html=1;fontFamily=Helvetica;fontSize=12;fontColor=#000000;align=center;" vertex="1" parent="batxFbvYJWx2iKTPdNKd-118">
          <mxGeometry x="230" y="30" width="80" height="60" as="geometry" />
        </mxCell>
        <mxCell id="batxFbvYJWx2iKTPdNKd-125" value="Return client connection socket" style="ellipse;whiteSpace=wrap;html=1;" vertex="1" parent="batxFbvYJWx2iKTPdNKd-118">
          <mxGeometry x="430" y="20" width="80" height="80" as="geometry" />
        </mxCell>
        <mxCell id="batxFbvYJWx2iKTPdNKd-126" value="" style="edgeStyle=orthogonalEdgeStyle;rounded=0;orthogonalLoop=1;jettySize=auto;html=1;" edge="1" parent="batxFbvYJWx2iKTPdNKd-118" source="batxFbvYJWx2iKTPdNKd-127" target="batxFbvYJWx2iKTPdNKd-125">
          <mxGeometry relative="1" as="geometry" />
        </mxCell>
        <mxCell id="batxFbvYJWx2iKTPdNKd-127" value="Close the listening socket" style="rounded=0;whiteSpace=wrap;html=1;fontFamily=Helvetica;fontSize=12;fontColor=#000000;align=center;" vertex="1" parent="batxFbvYJWx2iKTPdNKd-118">
          <mxGeometry x="330" y="30" width="80" height="60" as="geometry" />
        </mxCell>
        <mxCell id="batxFbvYJWx2iKTPdNKd-128" value="Client" style="swimlane;html=1;startSize=20;horizontal=0;" vertex="1" parent="batxFbvYJWx2iKTPdNKd-116">
          <mxGeometry x="20" y="120" width="540" height="130" as="geometry" />
        </mxCell>
        <mxCell id="batxFbvYJWx2iKTPdNKd-129" value="" style="edgeStyle=orthogonalEdgeStyle;rounded=0;orthogonalLoop=1;jettySize=auto;html=1;" edge="1" parent="batxFbvYJWx2iKTPdNKd-128" source="batxFbvYJWx2iKTPdNKd-130" target="batxFbvYJWx2iKTPdNKd-133">
          <mxGeometry relative="1" as="geometry" />
        </mxCell>
        <mxCell id="batxFbvYJWx2iKTPdNKd-130" value="Attempts to connect to a server" style="rounded=0;whiteSpace=wrap;html=1;fontFamily=Helvetica;fontSize=12;fontColor=#000000;align=center;" vertex="1" parent="batxFbvYJWx2iKTPdNKd-128">
          <mxGeometry x="230" y="30" width="80" height="60" as="geometry" />
        </mxCell>
        <mxCell id="batxFbvYJWx2iKTPdNKd-131" value="" style="edgeStyle=orthogonalEdgeStyle;rounded=0;orthogonalLoop=1;jettySize=auto;html=1;" edge="1" parent="batxFbvYJWx2iKTPdNKd-128" source="batxFbvYJWx2iKTPdNKd-132" target="batxFbvYJWx2iKTPdNKd-130">
          <mxGeometry relative="1" as="geometry" />
        </mxCell>
        <mxCell id="batxFbvYJWx2iKTPdNKd-132" value="Creates an unbound socket" style="ellipse;whiteSpace=wrap;html=1;" vertex="1" parent="batxFbvYJWx2iKTPdNKd-128">
          <mxGeometry x="30" y="20" width="80" height="80" as="geometry" />
        </mxCell>
        <mxCell id="batxFbvYJWx2iKTPdNKd-133" value="Return Server connection socket" style="ellipse;whiteSpace=wrap;html=1;" vertex="1" parent="batxFbvYJWx2iKTPdNKd-128">
          <mxGeometry x="390" y="20" width="120" height="80" as="geometry" />
        </mxCell>
      </root>
    </mxGraphModel>
  </diagram>
</mxfile>
